<?xml version="1.0" encoding="utf-8"?>
<!-- Svg Vector Icons : http://www.onlinewebfonts.com/icon -->
<!DOCTYPE svg PUBLIC "-//W3C//DTD SVG 1.1//EN" "http://www.w3.org/Graphics/SVG/1.1/DTD/svg11.dtd">
<svg version="1.1" xmlns="http://www.w3.org/2000/svg" xmlns:xlink="http://www.w3.org/1999/xlink" x="0px" y="0px" viewBox="0 0 1000 1000" enable-background="new 0 0 1000 1000" xml:space="preserve">
<metadata> Svg Vector Icons : http://www.onlinewebfonts.com/icon </metadata>
<g><g transform="translate(0.000000,512.000000) scale(0.100000,-0.100000)"><path d="M8611.8,4162.5l-855.6-855.6L7358.1,3705l-396.2,396.2L6745.6,3885l-214.4-214.4l612.5-612.5l612.5-612.5l1071.9,1071.9L9900,4589.3l-216.3,216.3L9469.3,5020L8611.8,4162.5z"/><path d="M4665,2855.2c-562.7-76.6-1035.5-315.8-1330.3-668c-162.7-197.1-254.6-392.4-319.7-677.6c-53.6-235.4-38.3-1039.3,24.9-1259.5c7.7-28.7-1.9-34.4-53.6-34.4c-308.2-1.9-283.3-719.7,38.3-1068c40.2-44,132.1-195.2,201-335c237.4-474.7,545.5-888.1,826.9-1104.4c57.4-44,105.3-95.7,105.3-112.9c0-36.4-124.4-268-225.9-421.1c-103.4-158.9-321.6-365.6-457.5-438.3c-86.1-45.9-187.6-76.6-373.2-111c-679.5-130.2-1343.7-346.5-1701.6-555.1c-166.5-97.6-308.2-243.1-340.7-350.3c-13.4-45.9-28.7-176.1-34.5-290.9L1013-4780h3987h3987l-11.5,208.6c-15.3,287.1-38.3,354.1-166.5,480.4c-266.1,262.2-1029.8,549.3-1910.2,715.9c-287.1,55.5-409.6,109.1-578,256.5c-135.9,118.7-304.3,348.4-411.5,560.8l-86.1,174.2l112.9,84.2c283.3,212.5,597.2,629.7,838.3,1112.1c68.9,139.7,160.8,290.9,201,335c321.6,348.4,346.4,1066.1,38.3,1068c-53.6,0-61.3,5.7-51.7,44c61.3,283.3,82.3,836.5,40.2,1121.6c-59.3,392.4-183.7,654.6-432.6,901.5c-273.7,273.7-606.8,447.9-1027.9,535.9C5323.5,2864.8,4869.8,2883.9,4665,2855.2z"/><path d="M2195.9,1025.3c-266.1-42.1-503.4-153.1-673.8-317.7c-225.9-216.3-304.3-461.3-285.2-893.9c5.7-141.7,15.3-279.4,23-306.3c7.7-40.2,1.9-51.7-47.9-70.8c-70.8-26.8-97.6-88-97.6-224c0-137.8,45.9-281.3,124.4-382.8c36.4-47.9,107.2-166.5,155-264.1c128.2-256.5,233.5-407.7,390.5-558.9l135.9-132.1l-59.3-118.7c-84.2-166.5-214.4-323.5-315.8-384.7c-53.6-30.6-170.4-68.9-302.4-95.7c-447.9-95.7-869-258.4-1024-398.1c-84.2-76.6-118.7-174.2-118.7-335v-97.6h677.6h675.7l128.2,57.4c323.5,147.4,1022.1,350.3,1485.3,432.6c99.5,17.2,208.6,44,239.3,61.3c80.4,40.2,210.5,147.4,258.4,214.4l38.3,55.5l-109.1,19.1c-237.3,45.9-373.2,151.2-522.5,403.9c-105.3,179.9-105.3,191.4-19.1,260.3c42.1,34.5,114.8,107.2,160.8,160.8l86.1,101.4l-47.9,78.5c-26.8,44-112.9,208.6-193.3,365.6c-88,174.2-181.8,329.2-237.3,394.3c-275.6,317.7-354.1,924.5-162.7,1249.9c26.8,45.9,70.8,99.5,95.7,120.6l45.9,34.4l-26.8,277.5c-15.3,151.2-32.5,279.5-36.4,285.2C2622.7,1029.2,2262.9,1036.8,2195.9,1025.3z"/><path d="M7407.9,1027.3c-59.3-11.5-59.3-7.7-90-352.2L7298.8,455l47.9-34.4c122.5-91.9,199.1-315.8,199.1-580c0-302.4-93.8-580-264.1-784.8c-55.5-68.9-157-237.4-241.2-402c-78.5-157-164.6-319.7-191.4-363.7l-47.9-76.6l80.4-97.6c63.2-74.6,191.4-197.1,239.3-227.8c17.2-11.5-120.6-258.4-197.1-356c-103.4-132.1-220.1-202.9-388.6-239.3c-68.9-13.4-130.1-28.7-134-34.5c-17.2-17.2,174.2-197.1,258.4-243.1c57.4-30.6,179.9-65.1,321.6-91.9c463.2-84.2,1119.7-275.6,1439.4-421.1l126.3-57.4h675.7H9900v86.1c0,168.4-34.5,269.9-118.7,344.5c-155,141.7-574.2,304.3-1024,400c-132.1,26.8-248.8,65.1-302.4,95.7c-101.4,61.2-231.6,218.2-317.7,386.6l-61.3,120.6l65.1,53.6c176.1,145.5,319.7,340.7,465.1,633.6c47.9,97.6,118.7,216.3,155,264.1c78.5,101.5,124.4,245,124.4,382.8c0,135.9-26.8,197.2-97.6,224c-47.9,19.1-55.5,30.6-47.9,70.8c5.7,26.8,17.2,164.6,22.9,306.3c19.1,438.3-59.3,681.4-294.8,901.5c-137.8,130.2-304.3,223.9-493.8,273.7C7861.5,1021.5,7505.5,1044.5,7407.9,1027.3z"/></g></g>
</svg>